<svg xmlns="http://www.w3.org/2000/svg" width="16.681" height="18.535" viewBox="0 0 16.681 18.535"><defs><style>.a{fill:none;}.b{fill:#00a1de;}</style></defs><path class="a" d="M15.345,18.364V7.591H7V18.364ZM12.008,9.387h1.668v7.182H12.008Zm-3.336,0h1.668v7.182H8.671ZM8.671,4h5V5.8h-5Z" transform="translate(-2.833 -1.915)"/><path class="b" d="M4.856,18.681A1.855,1.855,0,0,0,6.71,20.535h9.267a1.855,1.855,0,0,0,1.853-1.853V7.56h1.853V5.707H15.977V3.853A1.855,1.855,0,0,0,14.124,2H8.563A1.855,1.855,0,0,0,6.71,3.853V5.707H3V7.56H4.856V18.681ZM8.563,3.853h5.56V5.707H8.563ZM7.637,7.56h8.341V18.681H6.71V7.56Z" transform="translate(-3.003 -2)"/><path class="b" d="M9,10h2.085v8.341H9Zm4.17,0h2.085v8.341H13.173Z" transform="translate(-3.79 -3.204)"/></svg>