<?xml version="1.0" encoding="utf-8"?>
<!-- Generator: Adobe Illustrator 24.0.3, SVG Export Plug-In . SVG Version: 6.00 Build 0)  -->
<svg version="1.1" id="Capa_1" xmlns="http://www.w3.org/2000/svg" xmlns:xlink="http://www.w3.org/1999/xlink" x="0px" y="0px"
	 viewBox="0 0 38.55 38.59" style="enable-background:new 0 0 38.55 38.59;" xml:space="preserve">
<style type="text/css">
	.st0{fill:#AEAEAD;}
	.st1{fill:#FFFFFF;}
</style>
<g id="Grupo_6113" transform="translate(-1174 -280)">
	<circle id="Elipse_1439" class="st0" cx="1193.42" cy="299.8" r="18.13"/>
	<g id="Grupo_6109" transform="translate(1242.773 354.697)">
		<path id="Trazado_4635" class="st1" d="M-55.87-41.15c-0.08-0.06-0.16-0.11-0.25-0.15c-1.67-0.48-2.6-1.61-2.72-3.3
			c-0.14-1.99,0.13-3.94,1.04-5.76c0.68-1.35,1.74-2.27,3.31-2.4c0.49-0.02,0.97,0.07,1.42,0.26c0.48,0.19,0.88,0.58,1.35,0.81
			c1.77,0.86,3.5,0.75,5.16-0.29c2.11-1.32,4.19-0.85,5.43,1.34c1.17,2.07,1.45,4.35,1.1,6.67c-0.18,1.21-1,2.04-2.16,2.51
			c-0.23,0.09-0.45,0.2-0.67,0.3L-55.87-41.15z M-49.39-42.49L-49.39-42.49c1.87,0,3.73,0.01,5.6-0.01
			c1.53-0.02,2.39-0.83,2.49-2.33c0.04-0.62,0.03-1.25-0.04-1.87c-0.15-1.3-0.41-2.57-1.22-3.65c-0.84-1.12-1.93-1.32-3.06-0.59
			c-2.53,1.63-5.05,1.6-7.56-0.03c-0.91-0.59-1.69-0.59-2.46,0.1c-0.4,0.37-0.74,0.81-0.99,1.3c-0.68,1.29-0.78,2.72-0.86,4.14
			c-0.1,1.89,0.85,2.93,2.75,2.94C-52.96-42.48-51.18-42.49-49.39-42.49L-49.39-42.49z"/>
		<path id="Trazado_4636" class="st1" d="M-55-58.24c-0.02-2.98,2.38-5.42,5.36-5.45c3.06-0.02,5.47,2.32,5.61,5.22
			c0.14,2.88-2.29,5.68-5.48,5.66C-52.55-52.84-54.98-55.21-55-58.24z M-53.63-58.27c0,2.31,1.79,4.08,4.12,4.08
			c2.25,0,4.08-1.83,4.08-4.08c0-2.25-1.83-4.08-4.08-4.08C-51.82-62.36-53.63-60.56-53.63-58.27L-53.63-58.27z"/>
	</g>
</g>
</svg>