<svg xmlns="http://www.w3.org/2000/svg" width="16.945" height="16.845" viewBox="0 0 16.945 16.845"><defs><style>.a{fill:#00a1de;}</style></defs><g transform="translate(-3 -2.478)"><path class="a" d="M7,15.7l4.014-.014,8.76-8.677a1.818,1.818,0,0,0,0-2.572L18.331,2.993a1.864,1.864,0,0,0-2.569,0L7,11.668ZM17.045,4.279l1.445,1.44L17.038,7.157,15.6,5.716ZM8.819,12.427,14.3,6.995l1.442,1.442-5.483,5.431-1.443,0Z" transform="translate(-0.362)"/><path class="a" d="M4.819,19.371H17.552a1.821,1.821,0,0,0,1.819-1.819V9.668l-1.819,1.819v6.064H7.691c-.024,0-.048.009-.072.009s-.06-.008-.091-.009H4.819V4.819h6.227L12.865,3H4.819A1.821,1.821,0,0,0,3,4.819V17.552A1.821,1.821,0,0,0,4.819,19.371Z" transform="translate(0 -0.047)"/></g></svg>