<svg xmlns="http://www.w3.org/2000/svg" xmlns:xlink="http://www.w3.org/1999/xlink" width="147" height="46" viewBox="0 0 147 46" style="width:147px; height:46px">
<defs>
<style>.a{fill:url(#a);}.b{fill:url(#b);}.c{fill:url(#c);}.d{fill:url(#d);}.e{fill:url(#e);}.f{fill:url(#f);}.g{fill:url(#g);}.h{fill:url(#h);}.i{fill:#ffffff;}.j{fill:#ffffff;}</style>
<linearGradient id="a" x1="-145.676" y1="113.055" x2="-145.687" y2="113.071" gradientUnits="objectBoundingBox">
<stop offset="0" stop-color="#ffffff"/>
<stop offset="1" stop-color="#ffffff"/>
</linearGradient>
<linearGradient id="b" x1="-113.149" y1="228.583" x2="-113.175" y2="228.609" xlink:href="#a"/>
<linearGradient id="c" x1="-133.366" y1="408.961" x2="-133.397" y2="408.938" xlink:href="#a"/>
<linearGradient id="d" x1="-76.463" y1="220.963" x2="-76.445" y2="220.975" xlink:href="#a"/>
<linearGradient id="e" x1="-113.136" y1="232.593" x2="-113.108" y2="232.56" xlink:href="#a"/>
<linearGradient id="f" x1="-265.551" y1="210.524" x2="-265.527" y2="210.492" xlink:href="#a"/>
<linearGradient id="g" x1="-261.757" y1="315.094" x2="-261.81" y2="315.047" xlink:href="#a"/>
<linearGradient id="h" x1="-98.288" y1="112.634" x2="-98.268" y2="112.65" xlink:href="#a"/>
</defs>
<path class="a" d="M943.474,475.63c.7,3.839,3.248,6.085,6.654,7.325,2.744-2.37,4.33-5.382,3.632-9.206s-4.745-9.026-7.379-11.22C944.6,465.518,942.77,471.812,943.474,475.63Z" transform="translate(-930.076 -462.529)"/>
<path class="b" d="M942.048,478.586a7.372,7.372,0,0,0,7.735.339c.2-2.831-.6-5.377-3.11-7.092s-7.626-2.328-10.3-2.086C937.043,472.4,939.541,476.879,942.048,478.586Z" transform="translate(-935.251 -457.188)"/>
<path class="c" d="M942.945,482.568a3.208,3.208,0,1,0-1.016-5.661c-2.106.384-4.977,2.59-6.2,4.054C937.376,481.925,940.839,482.946,942.945,482.568Z" transform="translate(-935.731 -451.882)"/>
<path class="d" d="M959.682,482.864c-3.838.7-6.841-.876-9.2-3.627,1.23-3.4,3.5-5.956,7.314-6.654s10.117,1.218,13.1,2.913C968.737,478.216,963.509,482.162,959.682,482.864Z" transform="translate(-924.74 -455.147)"/>
<path class="e" d="M954.115,486.994a7.391,7.391,0,0,1-3.347-6.979c2.529-1.295,5.174-1.558,7.742.077s5.141,6.1,5.958,8.658C961.774,489.162,956.677,488.629,954.115,486.994Z" transform="translate(-924.532 -450.289)"/>
<path class="f" d="M947.689,487.531a3.122,3.122,0,1,1,5.471-1.2c.449,2.037-.473,5.438-1.318,7.066C950.345,492.292,948.132,489.566,947.689,487.531Z" transform="translate(-926.912 -447.622)"/>
<path class="g" d="M945.919,486.733a2.549,2.549,0,1,0-3.78-2.569A10.71,10.71,0,0,0,941,489.923,10.335,10.335,0,0,0,945.919,486.733Z" transform="translate(-931.83 -447.746)"/>
<path class="h" d="M950.07,471.638c-2.647,3.839-2.286,8.028-.3,12.071,4.489.389,8.494-.785,11.145-4.663s3.462-11.838,2.995-16.021C959.749,464.007,952.721,467.766,950.07,471.638Z" transform="translate(-926.452 -462.159)"/>
<path class="i" d="M950.124,469.514a8.918,8.918,0,0,0-.34-1.295,10.468,10.468,0,0,0-1.251,8.312A8.78,8.78,0,0,0,950.124,469.514Z" transform="translate(-926.461 -458.289)"/>
<path class="i" d="M958.347,472.447a11.041,11.041,0,0,0-1.1.127,8.8,8.8,0,0,0-6.035,4.049A10.478,10.478,0,0,0,958.347,472.447Z" transform="translate(-924.193 -455.138)"/>
<g transform="translate(55.607 11.7)">
<path class="j" d="M982.577,472.793A3,3,0,0,0,983.8,469.8a3.338,3.338,0,0,0-3.342.286,7.88,7.88,0,0,0-2.3,3.759A8.345,8.345,0,0,0,982.577,472.793Z" transform="translate(-959.724 -469.047)"/>
<path class="j" d="M983.325,489.845l-.1.054a11.45,11.45,0,0,1-6.035,1.707c-5.74,0-9.6-3.929-9.6-9.777a9.829,9.829,0,0,1,10.237-10.089,11.006,11.006,0,0,1,5,1.1l.066.038v.077l-.061,2.913v.225l-.19-.122a8.707,8.707,0,0,0-4.785-1.375c-4.625,0-6.7,3.522-6.7,7.01,0,4.22,2.607,7.051,6.49,7.051a9.329,9.329,0,0,0,4.558-1.232l.131-.077.051.141.873,2.267Zm14.019.483s.082-2.278.082-3.621v-5.363c0-3.812-2.229-5.211-5.574-5.211a9.145,9.145,0,0,0-5.548,1.7l1.1,2.075a6.722,6.722,0,0,1,3.808-1.175c1.646,0,2.913.74,2.913,2.787v.433l-2.743.094c-3.78.159-6.035,1.827-6.035,4.827a5.083,5.083,0,0,0,.279,1.647c.691,1.937,2.639,2.869,4.7,2.963A25.939,25.939,0,0,0,997.344,490.329Zm-3.089-1.948a7.7,7.7,0,0,1-3.248.586,2.306,2.306,0,0,1-2.409-2.2c0-.052,0-.1,0-.157,0-1.367.96-2.145,3.161-2.194l2.5-.1Zm16.41-18.434a2.014,2.014,0,1,0,2.04,2.014,1.991,1.991,0,0,0-1.969-2.014Zm1.607,21.216V476.514h-3.22v14.647Zm16.075-.834v-21.1h-3.225v7.094a11.276,11.276,0,0,0-2.042-.192,7.643,7.643,0,0,0-7.925,7.354c-.007.162-.007.323,0,.485,0,4.988,3.534,7.5,7.841,7.5a11.43,11.43,0,0,0,5.354-1.145Zm-3.225-1.827a5.872,5.872,0,0,1-1.789.274,4.621,4.621,0,0,1-4.937-4.981,4.68,4.68,0,0,1,4.833-4.993,5.93,5.93,0,0,1,1.914.248Zm18.873,1.827v-21.1h-3.22v7.094a11.274,11.274,0,0,0-2.04-.192,7.652,7.652,0,0,0-7.937,7.356c-.005.16-.007.323,0,.483,0,4.988,3.532,7.5,7.84,7.5a11.463,11.463,0,0,0,5.361-1.145Zm-3.22-1.827a5.906,5.906,0,0,1-1.794.274,4.621,4.621,0,0,1-4.939-4.981,4.676,4.676,0,0,1,4.829-4.993,6.039,6.039,0,0,1,1.925.248Zm18.106,1.827s.077-2.278.077-3.62v-5.363c0-3.813-2.229-5.211-5.569-5.211a9.14,9.14,0,0,0-5.525,1.7l1.1,2.073a6.766,6.766,0,0,1,3.813-1.175c1.646,0,2.911.742,2.911,2.789v.433l-2.741.094c-3.782.159-6.035,1.825-6.035,4.827a4.983,4.983,0,0,0,.28,1.646c.691,1.937,2.633,2.869,4.7,2.963a25.858,25.858,0,0,0,6.994-1.157Zm-3.089-1.948a7.673,7.673,0,0,1-3.254.588,2.307,2.307,0,0,1-2.382-2.223c0-.044,0-.087,0-.131,0-1.366.96-2.145,3.161-2.194l2.5-.1Zm-49.58,2.441-.405-2.382a3.353,3.353,0,0,1-.967.12c-.8,0-1.052-.374-1.052-1.548v-17.78h-3.222v19.2a2.774,2.774,0,0,0,3.068,3.066,5.23,5.23,0,0,0,2.581-.681Z" transform="translate(-967.594 -469.233)"/>
</g>
</svg>