<svg xmlns="http://www.w3.org/2000/svg" width="71.203" height="71.202" viewBox="0 0 71.203 71.202"><defs><style>.a{fill:#fff;stroke:#fff;stroke-width:0.3px;}</style></defs><path class="a" d="M49.452,14A35.451,35.451,0,0,0,23.316,73.381a36.231,36.231,0,0,0,3.328,3.181,35.353,35.353,0,0,0,45.614,0,36.226,36.226,0,0,0,3.328-3.181A35.451,35.451,0,0,0,49.452,14Zm0,66.964a31.433,31.433,0,0,1-21.665-8.646,23.142,23.142,0,0,1,43.329,0,31.433,31.433,0,0,1-21.665,8.646ZM39.6,43.543a9.848,9.848,0,1,1,9.848,9.848A9.848,9.848,0,0,1,39.6,43.543Zm34.467,25.6A27.189,27.189,0,0,0,57.6,54.641a13.787,13.787,0,1,0-16.288,0A27.189,27.189,0,0,0,24.833,69.146a31.512,31.512,0,1,1,49.238,0Z" transform="translate(-13.85 -13.85)"/></svg>