<svg xmlns="http://www.w3.org/2000/svg" width="17.768" height="17.746" viewBox="0 0 17.768 17.746"><defs><style>.a{fill:#fff;stroke:#fff;stroke-width:0.2px;}</style></defs><g transform="translate(0.1 -0.23)"><g transform="translate(1.589 9.697)"><rect class="a" width="1.018" height="1.018"/></g><g transform="translate(0 0.33)"><g transform="translate(0 0)"><path class="a" d="M16.767,8.639a1.842,1.842,0,0,0-.405-2.661,1.842,1.842,0,0,0-.4-2.661A1.845,1.845,0,0,0,14.507.33H9.927A8.065,8.065,0,0,0,7.086.845L5.17,1.564V.733H0V12.868H5.17V10.919c1.755,1.882,3.41,3.732,3.7,4.192v2.024a.741.741,0,0,0,.74.74,3.055,3.055,0,0,0,3.052-3.052v-.913l-.552-1.906h3.616a1.845,1.845,0,0,0,1.044-3.366ZM4.14,11.839H1.029V1.763H4.14Zm11.582-.863H10.737l.892,3.081v.767a2.026,2.026,0,0,1-1.733,2V15.007c0-.249,0-.446-2.531-3.225-.895-.982-1.8-1.946-2.2-2.368V2.663l2.277-.854a7.039,7.039,0,0,1,2.48-.45h4.58a.816.816,0,0,1,0,1.632H13.191V4.021h1.722a.816.816,0,1,1,0,1.632H13.661V6.682h1.656a.816.816,0,0,1,0,1.632h-1.25V9.344h1.655a.816.816,0,0,1,0,1.632Z" transform="translate(0 -0.33)"/></g></g></g></svg>